<?xml version="1.0" encoding="UTF-8" standalone="no"?>
<!-- Created with Inkscape (http://www.inkscape.org/) -->

<svg
   width="256"
   height="256"
   viewBox="0 0 256 256"
   version="1.1"
   id="svg1"
   inkscape:export-filename="favicon.png"
   inkscape:export-xdpi="192"
   inkscape:export-ydpi="192"
   inkscape:version="1.4.3 (1:1.4.3+202512261035+0d15f75042)"
   sodipodi:docname="logo.svg"
   xmlns:inkscape="http://www.inkscape.org/namespaces/inkscape"
   xmlns:sodipodi="http://sodipodi.sourceforge.net/DTD/sodipodi-0.dtd"
   xmlns="http://www.w3.org/2000/svg"
   xmlns:svg="http://www.w3.org/2000/svg">
  <sodipodi:namedview
     id="namedview1"
     pagecolor="#505050"
     bordercolor="#eeeeee"
     borderopacity="1"
     inkscape:showpageshadow="0"
     inkscape:pageopacity="0"
     inkscape:pagecheckerboard="0"
     inkscape:deskcolor="#505050"
     inkscape:document-units="px"
     inkscape:zoom="1.6761991"
     inkscape:cx="156.90261"
     inkscape:cy="162.57019"
     inkscape:window-width="1280"
     inkscape:window-height="1011"
     inkscape:window-x="1280"
     inkscape:window-y="32"
     inkscape:window-maximized="0"
     inkscape:current-layer="g5">
    <inkscape:page
       x="0"
       y="0"
       width="256"
       height="256"
       id="page20"
       margin="10"
       bleed="0" />
  </sodipodi:namedview>
  <defs
     id="defs1" />
  <g
     inkscape:label="Layer 1"
     inkscape:groupmode="layer"
     id="layer1">
    <g
       id="g5"
       transform="matrix(0.23030829,0,0,0.23030829,10.88212,15.128183)">
      <rect
         style="fill:#719294;fill-opacity:1;stroke:none;stroke-width:35.3569;stroke-linecap:round;stroke-dasharray:none;stroke-opacity:1"
         id="rect20"
         width="772.92456"
         height="781.18805"
         x="229.49908"
         y="-0.34690154"
         ry="120.7967" />
      <rect
         style="fill:#719294;fill-opacity:1;stroke:none;stroke-width:35.3569;stroke-linecap:round;stroke-dasharray:none;stroke-opacity:1"
         id="rect19"
         width="772.92456"
         height="781.18805"
         x="134.21892"
         y="104.15127"
         ry="120.7967" />
      <g
         id="g9"
         transform="matrix(2.1919799,0,0,2.1919799,-45.321453,-22.266701)">
        <path
           d="M 200.99666,457.46574 V 285.82902 H 29.357991 v 119.4043 c 0,28.93726 23.297116,52.23242 52.234375,52.23242 z"
           style="fill:none;stroke:#000000;stroke-width:20"
           id="path9" />
        <path
           d="M 372.63338,285.82902 H 200.99666 v 171.63672 h 119.4043 c 28.93726,0 52.23242,-23.29516 52.23242,-52.23242 z"
           style="fill:none;stroke:#000000;stroke-width:20"
           id="path8" />
        <path
           d="M 200.99666,114.1923 V 285.82902 H 372.63338 V 166.42473 c 0,-28.93725 -23.29517,-52.23243 -52.23242,-52.23243 z"
           style="fill:none;stroke:#000000;stroke-width:20"
           id="path7" />
        <path
           d="m 81.592366,114.1923 c -28.937259,0 -52.234375,23.29518 -52.234375,52.23243 V 285.82902 H 200.99666 V 114.1923 Z"
           style="fill:none;stroke:#000000;stroke-width:20"
           id="path6" />
      </g>
      <path
         id="path3"
         style="fill:none;stroke:#272727;stroke-width:43.8396;stroke-linecap:round;stroke-opacity:1"
         d="m 156.49444,160.91238 c 0,-21.18935 25.25639,-47.06596 46.86158,-47.06596 h 567.37253 c 63.42989,0 114.49437,51.06449 114.49437,114.49436 v 589.13271 c 0.0688,27.09715 -17.8198,46.13441 -38.96898,46.13441"
         sodipodi:nodetypes="ccsscc" />
      <path
         id="path5"
         style="fill:none;stroke:#272727;stroke-width:43.8396;stroke-linecap:round;stroke-opacity:1"
         d="m 254.87197,46.202793 c 0,-21.189343 25.25641,-46.54969455 46.8616,-46.54969455 h 582.7354 c 63.42989,0 114.49436,51.06449355 114.49436,114.49437155 v 596.42748 c 0.055,21.65706 -21.93102,46.1344 -40.74788,46.1344"
         sodipodi:nodetypes="ccsscc" />
      <g
         id="g13"
         transform="matrix(2.1919799,0,0,2.1919799,-45.321453,-22.266701)">
        <path
           d="M 200.99666,457.46574 V 285.82902 H 29.357991 v 119.4043 c 0,28.93726 23.297116,52.23242 52.234375,52.23242 z"
           style="fill:#719294;fill-opacity:1;stroke:#272727;stroke-width:20;stroke-opacity:1"
           id="path10" />
        <path
           d="M 372.63338,285.82902 H 200.99666 v 171.63672 h 119.4043 c 28.93726,0 52.23242,-23.29516 52.23242,-52.23242 z"
           style="fill:#ad5b54;fill-opacity:1;stroke:#272727;stroke-width:20;stroke-opacity:1"
           id="path11" />
        <path
           d="M 200.99666,114.1923 V 285.82902 H 372.63338 V 166.42473 c 0,-28.93725 -23.29517,-52.23243 -52.23242,-52.23243 z"
           style="fill:#719294;fill-opacity:1;stroke:#272727;stroke-width:20;stroke-opacity:1"
           id="path12" />
        <path
           d="m 81.592366,114.1923 c -28.937259,0 -52.234375,23.29518 -52.234375,52.23243 V 285.82902 H 200.99666 V 114.1923 Z"
           style="fill:#36cccf;fill-opacity:1;stroke:#272727;stroke-width:20;stroke-opacity:1"
           id="path13" />
      </g>
      <path
         style="fill:#ad5b54;fill-opacity:1;stroke:#272727;stroke-width:32.8797;stroke-linecap:round;stroke-dasharray:none;stroke-opacity:1"
         d="M 159.79278,349.08242 V 478.98276"
         id="path14"
         sodipodi:nodetypes="cc" />
      <path
         style="fill:#ad5b54;fill-opacity:1;stroke:#272727;stroke-width:32.8797;stroke-linecap:round;stroke-dasharray:none;stroke-opacity:1"
         d="M 281.89918,350.26711 V 480.16746"
         id="path15"
         sodipodi:nodetypes="cc" />
      <rect
         style="fill:none;fill-opacity:1;stroke:#272727;stroke-width:32.8797;stroke-linecap:round;stroke-dasharray:none;stroke-opacity:1"
         id="rect15"
         width="70.947197"
         height="129.90033"
         x="617.58209"
         y="349.0824"
         ry="41.37471" />
      <path
         style="fill:#ad5b54;fill-opacity:1;stroke:#272727;stroke-width:32.8797;stroke-linecap:round;stroke-dasharray:none;stroke-opacity:1"
         d="M 511.86111,349.08242 V 478.98276"
         id="path16"
         sodipodi:nodetypes="cc" />
      <rect
         style="fill:none;fill-opacity:1;stroke:#272727;stroke-width:32.8797;stroke-linecap:round;stroke-dasharray:none;stroke-opacity:1"
         id="rect16"
         width="70.947197"
         height="129.90033"
         x="-195.26639"
         y="730.96704"
         ry="41.37471"
         transform="scale(-1,1)" />
      <path
         style="fill:#ad5b54;fill-opacity:1;stroke:#272727;stroke-width:32.8797;stroke-linecap:round;stroke-dasharray:none;stroke-opacity:1"
         d="M 281.89918,732.15176 V 862.0521"
         id="path17"
         sodipodi:nodetypes="cc" />
      <rect
         style="fill:none;fill-opacity:1;stroke:#272727;stroke-width:32.8797;stroke-linecap:round;stroke-dasharray:none;stroke-opacity:1"
         id="rect17"
         width="70.947197"
         height="129.90033"
         x="-547.33472"
         y="730.9671"
         ry="41.37471"
         transform="scale(-1,1)" />
      <rect
         style="fill:#ad5b54;fill-opacity:1;stroke:#272727;stroke-width:32.8797;stroke-linecap:round;stroke-dasharray:none;stroke-opacity:1"
         id="rect18"
         width="70.947197"
         height="129.90033"
         x="617.58209"
         y="730.9671"
         ry="41.37471" />
    </g>
  </g>
</svg>
